<?xml version="1.0" standalone="no"?>
<!DOCTYPE svg PUBLIC "-//W3C//DTD SVG 20010904//EN"
 "http://www.w3.org/TR/2001/REC-SVG-20010904/DTD/svg10.dtd">
<svg version="1.0" xmlns="http://www.w3.org/2000/svg"
 width="640.000000pt" height="640.000000pt" viewBox="0 0 640.000000 640.000000"
 preserveAspectRatio="xMidYMid meet">
<metadata>
Created by potrace 1.16, written by Peter Selinger 2001-2019
</metadata>
<g transform="translate(0.000000,640.000000) scale(0.100000,-0.100000)"
fill="#000000" stroke="none">
<path d="M315 3988 c-3 -7 -4 -389 -3 -848 l3 -835 2885 0 2885 0 0 845 0 845
-2883 3 c-2301 2 -2884 0 -2887 -10z m5720 -838 l0 -795 -2840 0 -2840 0 -3
785 c-1 432 0 791 3 798 3 10 577 12 2842 10 l2838 -3 0 -795z"/>
<path d="M465 3838 c-3 -7 -4 -299 -3 -648 l3 -635 1360 0 1360 0 0 645 0 645
-1358 3 c-1081 2 -1359 0 -1362 -10z m2227 -408 c49 -14 95 -54 113 -97 23
-54 20 -63 -20 -63 -30 0 -37 5 -49 34 -18 44 -61 66 -128 66 -69 0 -111 -31
-111 -80 0 -45 25 -63 131 -95 112 -34 165 -65 186 -109 50 -105 -34 -206
-174 -209 -113 -2 -196 48 -220 131 -17 61 50 66 75 6 18 -44 62 -65 137 -65
76 -1 112 21 116 72 5 54 -24 74 -163 115 -117 34 -165 82 -165 164 0 35 6 47
44 84 25 26 56 46 72 49 56 8 119 7 156 -3z m-1760 -237 l3 -238 133 -3 132
-3 0 -29 c0 -19 -6 -30 -17 -34 -10 -2 -85 -4 -168 -3 l-150 2 -3 273 -2 272
35 0 35 0 2 -237z m760 232 c3 -3 3 -16 0 -30 -4 -24 -5 -24 -131 -27 l-126
-3 -3 -82 -3 -83 120 0 c66 0 122 -3 124 -8 3 -4 3 -19 0 -35 l-5 -27 -119 0
-119 0 0 -90 0 -89 137 -3 138 -3 2 -27 c3 -38 -13 -40 -193 -35 l-149 4 -3
272 -2 271 163 0 c90 0 166 -2 169 -5z m590 0 c3 -3 3 -16 0 -30 -4 -23 -8
-24 -91 -27 l-86 -3 -3 -236 c-3 -253 -4 -259 -53 -241 -19 8 -20 16 -22 242
l-2 235 -92 3 -93 3 0 29 0 30 218 0 c120 0 221 -2 224 -5z"/>
<path d="M3485 3413 c-10 -8 -15 -522 -5 -524 31 -6 233 -4 277 3 149 23 228
115 227 262 0 68 -4 88 -26 126 -27 49 -97 103 -156 120 -46 14 -303 24 -317
13z m277 -149 c52 -27 67 -53 68 -115 0 -48 -4 -59 -27 -81 -42 -38 -66 -48
-122 -48 l-51 0 0 130 0 130 50 0 c28 0 65 -7 82 -16z"/>
<path d="M4038 3415 c-3 -4 24 -59 60 -123 36 -64 78 -141 95 -170 26 -48 29
-63 30 -143 0 -49 2 -89 6 -90 3 0 38 -1 76 -2 l70 -1 5 104 6 105 91 155 c50
85 88 159 83 163 -4 4 -42 7 -84 5 l-78 -3 -48 -93 -48 -94 -19 29 c-10 15
-32 56 -48 90 -18 37 -38 64 -50 67 -26 7 -140 8 -147 1z"/>
<path d="M4810 3413 c-142 -52 -200 -128 -200 -263 0 -158 98 -258 263 -268
146 -9 259 59 301 181 50 147 -29 298 -179 344 -40 13 -157 16 -185 6z m159
-152 c86 -44 86 -178 0 -222 -99 -50 -209 8 -209 111 0 103 110 161 209 111z"/>
<path d="M5285 3407 c-3 -7 -4 -127 -3 -267 l3 -255 70 0 70 0 3 73 3 72 33 0
c30 0 35 -5 66 -67 18 -38 38 -71 43 -75 11 -7 147 -8 159 -1 4 2 -6 27 -23
56 -68 119 -67 113 -32 150 18 17 37 45 42 60 17 44 13 117 -9 161 -38 79
-120 106 -318 106 -74 0 -104 -4 -107 -13z m258 -126 c30 -11 44 -59 27 -90
-12 -23 -33 -30 -95 -34 l-40 -2 -5 57 c-3 32 -4 62 -2 68 5 13 82 13 115 1z"/>
</g>
</svg>
